With: Tommy Lee Jones, Peter Sarsgaard and Mary Steenburgen

Detective Dave Robicheaux onderzoekt de moord op een hoertje. Hij verdenkt maffiabaas Julie – Baby Feet – Balboni achter deze bloederige misdaad maar heeft nog geen bewijs. Als een filmploeg neerstrijkt in Lousiana ontdekt hij dat de nieuwe film geproduceerd wordt met de steun van maffiabaas Baby Feet. Hollywoodster Elrod Sykes vervult de hoofdrol in deze burgeroorlogsfilm. Als Elrod Sykes aangehouden wordt door detective Robicheaux voor het rijden onder invloed, begint deze loslippig te worden. Hij brabbelt over een lichaam dat hij heeft gevonden. Deze moord vond 35 jaar geleden plaats en detective Robicheaux kan zich dit nog goed herinneren.

A detective in post Katrina New Orleans area has a series of surreal encounters with a troop of friendly Confederate soldiers while investigating serial killings of local prostitutes, a 1965 lynching and corrupt local businessmen. 

------------------ Dutch Friends ------------------

You can find my Friends at: http://www.Film-Test.nl 
                    
------ They got my dutchs subs ---- and more ------

General:

Complete name                    : In the Electric Mist.avi
Format                           : AVI
Format/Info                      : Audio Video Interleave
File size                        : 1.46 GiB
Duration                         : 1h 38mn
Overall bit rate                 : 2 137 Kbps
Writing application              : VirtualDubMod 1.5.4.1 (build 2178/release)
Writing library                  : VirtualDubMod build 2178/release

Video:

Format                           : MPEG-4 Visual
Format profile                   : Simple@L3
Format settings, BVOP            : No
Format settings, QPel            : No
Format settings, GMC             : No warppoints
Format settings, Matrix          : Default (H.263)
Codec ID                         : XVID
Codec ID/Hint                    : XviD
Duration                         : 1h 38mn
Bit rate                         : 1 682 Kbps
Width                            : 720 pixels
Height                           : 304 pixels
Display aspect ratio             : 2.35:1
Frame rate                       : 25.000 fps
Color space                      : YUV
Chroma subsampling               : 4:2:0
Bit depth                        : 8 bits
Scan type                        : Progressive
Bits/(Pixel*Frame)               : 0.307
Stream size                      : 1.15 GiB (79%)
Writing library                  : XviD 1.2.1 (UTC 2008-12-04)

Audio:

Format                           : AC-3
Format/Info                      : Audio Coding 3
Mode extension                   : CM (complete main)
Codec ID                         : 2000
Duration                         : 1h 38mn
Bit rate mode                    : Constant
Bit rate                         : 448 Kbps
Channel(s)                       : 6 channels
Channel positions                : Front: L C R, Side: L R, LFE
Sampling rate                    : 48.0 KHz
Bit depth                        : 16 bits
Stream size                      : 314 MiB (21%)
Alignment                        : Split accross interleaves
Interleave, duration             : 80 ms (2.00 video frames)
Interleave, preload duration     : 500 ms
Language                         : English

